<?xml version="1.0" encoding="UTF-8"?>
<!-- Generator: visioncortex VTracer -->
<svg id="svg" version="1.1" xmlns="http://www.w3.org/2000/svg" style="display: block;" viewBox="0 0 720 720"><path d="M0 0 C3 1 3 1 4.14404297 2.73974609 C4.50643066 3.49336426 4.86881836 4.24698242 5.2421875 5.0234375 C5.66161621 5.87019043 6.08104492 6.71694336 6.51318359 7.58935547 C6.96258301 8.50861816 7.41198242 9.42788086 7.875 10.375 C22.46023121 39.1088376 44.49151285 64.35320958 70 84 C71.81580831 85.49599346 73.62822071 86.99611679 75.4375 88.5 C83.18250344 94.82690422 91.2187667 100.73048071 99.34521484 106.55273438 C108.75753666 113.30202832 117.9684783 120.27016103 127.05078125 127.45751953 C128.25683279 128.41190751 129.46479171 129.36389724 130.67578125 130.31201172 C153.85981377 148.47133951 168.49561294 169.72120279 173.5234375 198.93359375 C173.65041519 199.6630571 173.77739288 200.39252045 173.90821838 201.14408875 C175.13710635 208.43173235 175.94803829 215.7492103 176.70623779 223.09817505 C179.83920484 253.09618985 184.78729215 284.87938584 205.6015625 308.28515625 C207 310 207 310 207 312 C207.66 312 208.32 312 209 312 C209 312.66 209 313.32 209 314 C209.66 314 210.32 314 211 314 C211 314.66 211 315.32 211 316 C211.66 316 212.32 316 213 316 C213 316.66 213 317.32 213 318 C213.56589844 318.27199219 214.13179687 318.54398437 214.71484375 318.82421875 C217.08264168 320.04252161 219.30409678 321.40239321 221.5625 322.8125 C228.2768614 326.86495481 235.19753138 330.69725389 243 332 C242.39414062 331.57332031 241.78828125 331.14664062 241.1640625 330.70703125 C233.59518082 325.05948107 228.36371854 318.65979909 223 311 C222.11634766 309.74703125 222.11634766 309.74703125 221.21484375 308.46875 C208.68054536 289.23453252 208.31463322 265.21263955 212.1875 243.3125 C216.38904667 224.5764163 224.96204627 207.16015632 238 193 C238.47421387 192.4834082 238.94842773 191.96681641 239.43701172 191.43457031 C247.18332575 183.09162423 255.4286072 176.15380769 265 170 C266.61261719 168.95392578 266.61261719 168.95392578 268.2578125 167.88671875 C290.7340423 154.20438028 315.03492211 149.52138711 341 149 C343.31053197 143.60850423 345.27859984 138.23156219 346.8671875 132.58203125 C352.31634622 113.75068235 352.31634622 113.75068235 356.99609375 110.03515625 C359.94147591 108.56073055 362.76105474 107.46212729 365.93798828 106.59863281 C368.98812728 105.71313188 371.86994696 104.4758295 374.80126953 103.26074219 C377.3003805 102.22920486 379.81351978 101.24094685 382.33203125 100.2578125 C390.05880049 97.21036251 397.68899735 93.93321163 405.33105469 90.68066406 C406.38583008 90.23174805 407.44060547 89.78283203 408.52734375 89.3203125 C409.46312256 88.92086426 410.39890137 88.52141602 411.36303711 88.10986328 C413.89745341 87.04316052 416.44363772 86.01282732 419 85 C420.21176066 88.63528198 419.67608079 89.67863631 418.44873047 93.24316406 C418.08439911 94.3156842 417.72006775 95.38820435 417.34469604 96.4932251 C416.73707932 98.23681305 416.73707932 98.23681305 416.1171875 100.015625 C415.70590607 101.21878357 415.29462463 102.42194214 414.87088013 103.66156006 C413.7711487 106.87370729 412.66373901 110.08299245 411.5524292 113.2911377 C410.44295551 116.49930496 409.34279314 119.71065694 408.2421875 122.921875 C406.56685782 127.80605603 404.88957084 132.68955485 403.20996094 137.57226562 C402.83013062 138.67707275 402.45030029 139.78187988 402.05895996 140.92016602 C401.40038177 142.83554675 400.74136406 144.7507765 400.08166504 146.66577148 C399.34395505 148.81205787 398.61200389 150.96018289 397.8828125 153.109375 C397.50785645 154.20733398 397.13290039 155.30529297 396.74658203 156.43652344 C395.86018962 159.03505849 395.86018962 159.03505849 396 162 C398.39300997 163.64296207 400.72655352 165.08668339 403.25 166.5 C412.5468391 171.8250326 412.5468391 171.8250326 415 174 C415 174.66 415 175.32 415 176 C415.53625 176.20625 416.0725 176.4125 416.625 176.625 C419.91978009 178.53250426 422.59363628 181.04819384 425 184 C425 184.66 425 185.32 425 186 C425.66 186 426.32 186 427 186 C440.14671199 201.87780084 447.26704059 221.44526861 448 242 C448.03996094 242.84175781 448.07992188 243.68351563 448.12109375 244.55078125 C448.26381859 250.21779715 447.79267162 255.75569671 447.125 261.375 C447.04660889 262.05328857 446.96821777 262.73157715 446.88745117 263.43041992 C446.37563748 267.38605767 445.51445541 270.21386148 444 274 C421.23 274 398.46 274 375 274 C376 266 376 266 376.54296875 263.4765625 C378.35962144 253.63247872 377.85560582 242.88299793 373 234 C372.01905715 232.9812993 371.02143463 231.97809575 370 231 C369.8320417 231.81920174 369.8320417 231.81920174 369.66069031 232.654953 C368.48225812 238.19934346 366.97845317 243.54433192 365.20703125 248.92578125 C364.80627884 250.15886269 364.80627884 250.15886269 364.39743042 251.41685486 C363.54004583 254.05014829 362.67640296 256.68133869 361.8125 259.3125 C361.22287504 261.12005584 360.63343863 262.92767319 360.04418945 264.73535156 C356.77839719 274.728048 353.48030922 284.70742875 349.8293457 294.56762695 C348.58881589 297.97316807 348 300.31485449 348 304 C349.02738281 304.49628906 350.05476563 304.99257813 351.11328125 305.50390625 C374.50049144 316.91147257 392.11984284 330.33286338 404 354 C404.29132813 353.44650879 404.58265625 352.89301758 404.8828125 352.32275391 C411.25873374 340.28018254 417.62070869 329.74368067 426.96557617 319.76049805 C439.6373997 306.17993817 449.08135777 291.16253288 455.75 273.8125 C456.15448364 272.79216675 456.15448364 272.79216675 456.56713867 271.7512207 C462.59185261 255.25520119 463.98317353 237.19954959 465.70629883 219.85717773 C468.73365607 189.79809968 475.64930885 165.3194158 497 143 C497.57621094 142.360625 498.15242188 141.72125 498.74609375 141.0625 C505.03532364 134.33904711 512.5854692 129.05847993 519.92822266 123.55908203 C522.76704654 121.42277172 525.5697704 119.24274887 528.375 117.0625 C533.61157795 113.02733145 538.9200911 109.09834134 544.25 105.1875 C550.59829744 100.52567781 556.92020811 95.83282282 563.1875 91.0625 C563.85749023 90.55549561 564.52748047 90.04849121 565.21777344 89.52612305 C569.43349123 86.30311497 573.41769721 82.90529071 577.3293457 79.31811523 C579 78 579 78 581 78 C581 77.34 581 76.68 581 76 C582.22265625 74.80078125 582.22265625 74.80078125 584.0625 73.3125 C588.57438851 69.48472455 592.7550224 65.36700181 596.9375 61.1875 C597.61240479 60.5169458 598.28730957 59.8463916 598.98266602 59.15551758 C599.61615967 58.52025146 600.24965332 57.88498535 600.90234375 57.23046875 C601.47460693 56.65707764 602.04687012 56.08368652 602.63647461 55.49291992 C604.10062576 54.02622622 604.10062576 54.02622622 605 52 C605.66 52 606.32 52 607 52 C607 51.34 607 50.68 607 50 C607.66 50 608.32 50 609 50 C609.2475 49.44828125 609.495 48.8965625 609.75 48.328125 C611.24164686 45.54993272 613.05676937 43.23455916 615 40.75 C624.7080074 28.03953648 632.37366881 14.01946839 640 0 C640.99 0 641.98 0 643 0 C652.8549654 40.49528584 655.70042944 79.1911517 633.34423828 116.31298828 C629.08772489 123.16070488 624.66316281 130.22579478 619 136 C618.34 136 617.68 136 617 136 C616.64808594 136.84304687 616.64808594 136.84304687 616.2890625 137.703125 C614.69337 140.54635891 612.71075457 142.48098127 610.375 144.75 C609.14910156 145.94882812 609.14910156 145.94882812 607.8984375 147.171875 C606.95871094 148.07679688 606.95871094 148.07679688 606 149 C617.48418474 143.94695871 627.4130803 135.72076862 636.890625 127.6171875 C639 126 639 126 641 126 C641 125.34 641 124.68 641 124 C642.609375 122.34375 642.609375 122.34375 644.75 120.5 C645.44609375 119.8915625 646.1421875 119.283125 646.859375 118.65625 C648.85202753 117.11448964 650.74041089 116.08545411 653 115 C653.31960571 129.31833593 653.61783158 143.06217882 650 157 C649.65775391 158.36898437 649.65775391 158.36898437 649.30859375 159.765625 C645.21464076 174.64421988 637.77201063 187.17183963 628 199 C627.39542969 199.73992187 626.79085937 200.47984375 626.16796875 201.2421875 C614.55009854 214.91862127 599.13451046 223.81850378 583.66796875 232.46875 C581.1581039 233.75479827 581.1581039 233.75479827 580 235 C590.92346707 232.60673121 601.45689486 229.74456718 612 226 C613 228 613 228 612.06640625 231.3515625 C611.57707331 232.7801975 611.07480238 234.20443992 610.5625 235.625 C610.28954102 236.38264648 610.01658203 237.14029297 609.73535156 237.92089844 C599.86614978 264.54453459 582.79747441 285.29627196 556.65917969 297.30151367 C537.57126221 305.56684575 516.78622481 307.49313237 496.25 308.9375 C473.86750786 310.55266069 449.29489907 315.77829401 433.50390625 333.15234375 C418.30074117 351.83051799 413.35602997 373.03066617 410.2890625 396.3984375 C408.07190022 413.10988456 404.04909812 427.17963403 396 442 C395.51660156 442.91652344 395.03320312 443.83304688 394.53515625 444.77734375 C379.65119731 471.39590221 351.00368136 490.78398474 322.24072266 499.37109375 C307.26642865 503.57394637 292.50996397 504.75515027 277 505 C276.87069092 505.8362793 276.74138184 506.67255859 276.6081543 507.53417969 C271.36887054 537.39241826 271.36887054 537.39241826 262.75927734 546.32470703 C257.68681236 549.75754628 252.05461295 551.38044871 246.19921875 553.00830078 C240.23501031 554.85709616 234.65904163 557.6348487 229 560.25 C226.72078285 561.26499388 224.4395954 562.27557749 222.15625 563.28125 C217.82297916 565.19446582 217.82297916 565.19446582 213.4921875 567.11328125 C211.49725799 567.99795847 209.49951822 568.8757565 207.5 569.75 C205.96859375 570.42289063 205.96859375 570.42289063 204.40625 571.109375 C202 572 202 572 199 572 C200.23515244 564.90542739 202.08622035 558.24139074 204.44921875 551.4453125 C204.78492386 550.46368134 205.12062897 549.48205017 205.46650696 548.47067261 C206.53424281 545.35337626 207.61075776 542.23919533 208.6875 539.125 C209.39054264 537.07571584 210.09302075 535.02623792 210.79492188 532.9765625 C213.52781956 525.00897204 216.27210073 517.04580825 219.08056641 509.10449219 C219.40748978 508.17845184 219.73441315 507.2524115 220.07124329 506.29830933 C220.68926345 504.55096314 221.31004996 502.80459215 221.93400574 501.05935669 C223.44537397 497.12712768 223.44537397 497.12712768 224 493 C223.18917969 492.5875 222.37835938 492.175 221.54296875 491.75 C195.97982563 478.41788345 177.89142915 458.63877313 168.6796875 431.1875 C164.06593754 415.83853911 162.68678799 393.25041469 168 378 C171.29983306 375.76493173 174.18409722 375.75193261 178.09790039 375.75708008 C179.32920181 375.75400345 180.56050323 375.75092682 181.82911682 375.74775696 C183.16863187 375.75465462 184.50814506 375.76192158 185.84765625 375.76953125 C187.2248073 375.77072397 188.60195917 375.77117602 189.97911072 375.7709198 C192.86153272 375.77248199 195.74383005 375.78075192 198.6262207 375.79418945 C202.32066984 375.81119486 206.01498229 375.81500316 209.70946598 375.81424427 C212.55160323 375.81451617 215.39371062 375.82000038 218.23583794 375.82724571 C219.59819755 375.83042707 220.96056054 375.83239855 222.32292366 375.83313942 C224.22579287 375.83530768 226.12864937 375.84485164 228.03149414 375.85473633 C229.11419083 375.85854813 230.19688751 375.86235992 231.31239319 375.86628723 C234 376 234 376 237 377 C237.1254154 383.39618552 237.1254154 383.39618552 236.515625 386.33203125 C234.40487325 397.25357248 235.77250929 408.94699253 241.53125 418.5546875 C244.24215433 422.37094626 244.24215433 422.37094626 248 425 C248.15130371 424.47607666 248.30260742 423.95215332 248.45849609 423.41235352 C250.97557703 414.85374393 253.80286717 406.39894622 256.625 397.9375 C257.0181842 396.75536423 257.0181842 396.75536423 257.41931152 395.54934692 C261.23894473 384.07461206 265.18787992 372.66057636 269.40869141 361.32592773 C269.75335449 360.39208252 270.09801758 359.4582373 270.453125 358.49609375 C270.75379883 357.69357178 271.05447266 356.8910498 271.36425781 356.06420898 C272.14717001 353.88213136 272.14717001 353.88213136 272 351 C270.25589844 350.85304688 270.25589844 350.85304688 268.4765625 350.703125 C241.19152034 348.23364326 219.97251525 340.43146509 197.8125 324.25 C178.34534461 310.48370875 155.00642466 309.7623109 132.08984375 307.74365234 C102.04812984 305.08534122 71.1767161 295.87162913 51 272 C42.8065148 261.31468167 37.05437671 249.9097523 32.0625 237.4375 C31.7432959 236.65093018 31.4240918 235.86436035 31.09521484 235.05395508 C30.80727051 234.31298584 30.51932617 233.5720166 30.22265625 232.80859375 C29.96234619 232.14657959 29.70203613 231.48456543 29.43383789 230.80249023 C29 229 29 229 30 226 C30.88558594 226.31453125 31.77117187 226.6290625 32.68359375 226.953125 C42.33995193 230.28914052 52.02388519 232.81429063 62 235 C60.33857009 233.33857009 58.19224256 232.4701115 56.125 231.375 C27.61395502 215.85354308 2.92981852 193.73104283 -6.6640625 161.7890625 C-9.94003559 149.80480651 -11.16437582 138.35851288 -11.0625 125.9375 C-11.05798828 124.88111328 -11.05347656 123.82472656 -11.04882812 122.73632812 C-11.03715918 120.15749092 -11.02078885 117.57877706 -11 115 C-6.83269976 116.91316202 -3.94044928 119.77371001 -0.6875 122.9375 C10.14188965 133.21219616 22.15976777 141.4431011 35 149 C31.81887425 144.89462825 28.35908017 141.34817323 24.609375 137.76953125 C23 136 23 136 23 134 C22.34 134 21.68 134 21 134 C0.25089093 111.4381894 -9.61749019 78.07392233 -9.14453125 48.01953125 C-8.41820863 32.84527769 -6.81647501 13.63295003 0 0 Z M5 36 C4.68208434 40.63718354 4.70423231 45.29044304 4.6875 49.9375 C4.68488159 50.62028015 4.68226318 51.3030603 4.67956543 52.00653076 C4.67497347 63.14695764 5.75604348 73.31535998 9 84 C9.26554687 85.02867187 9.53109375 86.05734375 9.8046875 87.1171875 C14.03792294 101.99398634 23.27028893 115.20485904 33 127 C34.07121094 128.41345703 34.07121094 128.41345703 35.1640625 129.85546875 C35.76992187 130.56316406 36.37578125 131.27085937 37 132 C37.66 132 38.32 132 39 132 C39 132.66 39 133.32 39 134 C39.66 134 40.32 134 41 134 C41 134.66 41 135.32 41 136 C42.68741952 137.7469755 44.54224055 139.24555104 46.40161133 140.80786133 C48.15420081 142.28643889 49.89968336 143.77347628 51.63842773 145.26831055 C58.72155042 151.29365464 66.04061183 156.6867982 73.8125 161.8125 C74.38838867 162.19474731 74.96427734 162.57699463 75.55761719 162.9708252 C87.93130432 171.17153561 100.75243505 178.47216458 113.81420898 185.51806641 C125.88141876 192.05148734 137.60725899 198.97426371 148 208 C148.89847656 208.77730469 149.79695312 209.55460938 150.72265625 210.35546875 C157.53218701 216.36157286 157.53218701 216.36157286 159.66015625 219.265625 C160.10230469 219.83796875 160.54445312 220.4103125 161 221 C161.66 221 162.32 221 163 221 C161.05565863 199.12615962 157.29272172 177.57618482 143 160 C142.34 160 141.68 160 141 160 C140.75765625 159.43410156 140.5153125 158.86820312 140.265625 158.28515625 C132.47039207 144.21043012 113.37497716 133.74240859 100.7578125 124.4921875 C90.92988485 117.28557172 81.14046458 110.06693455 71.76953125 102.26953125 C69.74394265 100.60963425 67.70859644 98.98662655 65.63671875 97.38671875 C59.05588758 92.30408066 52.73004719 87.11904705 46.73071289 81.35205078 C44.29318645 78.75040845 44.29318645 78.75040845 41 78 C41 77.34 41 76.68 41 76 C40.34 76 39.68 76 39 76 C39 75.34 39 74.68 39 74 C38.34 74 37.68 74 37 74 C37 73.34 37 72.68 37 72 C36.34 72 35.68 72 35 72 C35 71.34 35 70.68 35 70 C34.34 70 33.68 70 33 70 C33 69.34 33 68.68 33 68 C32.34 68 31.68 68 31 68 C31 67.34 31 66.68 31 66 C30.34 66 29.68 66 29 66 C28.77441406 65.46117187 28.54882812 64.92234375 28.31640625 64.3671875 C26.58855975 61.26014008 24.2859835 58.76714409 21.9375 56.125 C17.31777396 50.82635374 13.40054413 45.31002394 9.73022461 39.31884766 C8.83997406 37.86688894 7.92283612 36.43146906 7 35 C5.88214887 34.88214887 5.88214887 34.88214887 5 36 Z M635 35 C633.91142134 36.55898938 632.90566332 38.17600644 631.9375 39.8125 C627.17432751 47.52288546 621.40322695 54.26663652 615.4375 61.0625 C612.78714251 63.62033592 612.78714251 63.62033592 613 66 C612.34 66 611.68 66 611 66 C611 66.66 611 67.32 611 68 C610.34 68 609.68 68 609 68 C609 68.66 609 69.32 609 70 C608.34 70 607.68 70 607 70 C607 70.66 607 71.32 607 72 C606.34 72 605.68 72 605 72 C605 72.66 605 73.32 605 74 C604.34 74 603.68 74 603 74 C603 74.66 603 75.32 603 76 C602.34 76 601.68 76 601 76 C601 76.66 601 77.32 601 78 C600.34 78 599.68 78 599 78 C599 78.66 599 79.32 599 80 C598.43023438 80.24878906 597.86046875 80.49757812 597.2734375 80.75390625 C594.65405155 82.1896178 592.79778356 83.88707456 590.625 85.9375 C584.36840095 91.67041896 577.71797651 96.82634334 571 102 C570.1656543 102.64437012 570.1656543 102.64437012 569.31445312 103.30175781 C566.61066732 105.38987777 563.90322082 107.473099 561.19140625 109.55078125 C559.11035777 111.14551491 557.03616244 112.74799749 554.96484375 114.35546875 C548.4841295 119.37781747 541.92500963 124.27728301 535.3125 129.125 C507.2045046 149.76650822 486.27624432 169.55102461 480.75 205.375 C480.06835592 210.63681397 479.81725582 215.70041875 480 221 C480.72703125 220.26910156 481.4540625 219.53820312 482.203125 218.78515625 C498.92045118 202.13787474 518.07920139 190.70431399 538.66796875 179.4453125 C553.00159585 171.59312665 567.40023621 163.48300347 580 153 C580.76828125 152.401875 581.5365625 151.80375 582.328125 151.1875 C589.22159386 145.81146139 595.64168842 139.98733818 602 134 C602.79535156 133.27039063 603.59070313 132.54078125 604.41015625 131.7890625 C622.86689079 114.2763232 636.10663483 87.80431022 637.15478516 62.22216797 C637.21870643 58.08481493 637.17566999 53.94975229 637.125 49.8125 C637.11494179 48.36914689 637.105821 46.92578694 637.09765625 45.48242188 C637.07588691 41.98813606 637.04151675 38.49411363 637 35 C636.34 35 635.68 35 635 35 Z M389.34521484 111.86328125 C386.87245515 113.06182061 384.38616567 114.0082219 381.80078125 114.9375 C380.90166016 115.27652344 380.00253906 115.61554688 379.07617188 115.96484375 C377.23344678 116.65505174 375.37874042 117.31407685 373.51367188 117.94140625 C369.50362976 119.5061599 366.7814564 120.78400047 364.4128418 124.46972656 C363.06353461 127.60613831 362.00449436 130.73684762 361 134 C360.59869873 135.18658203 360.19739746 136.37316406 359.78393555 137.59570312 C358.54150167 141.30125056 357.35721819 145.02091506 356.1875 148.75 C355.77718662 150.0444275 355.36638164 151.33869927 354.95507812 152.6328125 C353.9652376 155.75372145 352.98030886 158.87608671 352 162 C351.2565332 162.0093457 350.51306641 162.01869141 349.74707031 162.02832031 C334.11258562 162.27403949 319.15900576 162.99663769 304 167 C302.90171875 167.28746094 301.8034375 167.57492188 300.671875 167.87109375 C272.94149657 176.2124509 248.62248468 196.02344913 234.6875 221.3125 C230.70489119 228.8842764 228.19629757 236.75721519 226 245 C225.63068359 246.25103516 225.63068359 246.25103516 225.25390625 247.52734375 C222.37002141 258.84410564 222.45616525 273.86753481 226 285 C226.31839844 286.0209375 226.63679688 287.041875 226.96484375 288.09375 C229.75545261 296.13671694 233.75249824 302.35084765 239 309 C239.66 309.99 240.32 310.98 241 312 C241.66 312 242.32 312 243 312 C243.26554687 312.60215332 243.53109375 313.20430664 243.8046875 313.82470703 C245.04439146 316.08078594 246.13167703 317.20944967 248.125 318.8046875 C248.7435083 319.30258789 249.3620166 319.80048828 249.99926758 320.31347656 C250.65950928 320.8287793 251.31975098 321.34408203 252 321.875 C252.68280029 322.41092773 253.36560059 322.94685547 254.0690918 323.49902344 C262.9167685 330.35652135 278.30187371 342 290 342 C289.45822805 343.62531586 288.91645533 345.25063146 288.37467957 346.87594604 C287.88810531 348.33567913 287.4015436 349.7954164 286.91499329 351.25515747 C285.55519077 355.3347524 284.19515773 359.41427026 282.8347168 363.49365234 C280.46467946 370.60103345 278.09471472 377.7084062 275.73828125 384.8203125 C271.93797553 396.28041859 268.05340008 407.70703019 264.0559082 419.10009766 C262.11392531 424.6610902 260.27674746 430.23034606 258.625 435.88476562 C257.81873293 438.61347573 256.92091837 441.30808477 256 444 C246.89510857 443.61255781 240.06048256 437.85290186 233.921875 431.46875 C227.55665626 423.29229015 223.34244175 413.33118901 222.70703125 402.99609375 C222.66046387 402.2695459 222.61389648 401.54299805 222.56591797 400.79443359 C222.48108525 399.32002161 222.40570837 397.84503164 222.34033203 396.36962891 C222.48778872 392.89033903 222.48778872 392.89033903 221 390 C217.96845465 389.98301067 214.96244596 390.02925955 211.93359375 390.12109375 C211.02497086 390.14470474 210.11634796 390.16831573 209.18019104 390.19264221 C206.26580954 390.26947851 203.35168056 390.35341637 200.4375 390.4375 C198.46680941 390.49070072 196.49610634 390.54344123 194.52539062 390.59570312 C189.68343255 390.72512052 184.84168946 390.86090906 180 391 C175.9303323 410.07197981 180.86669295 430.74886468 191.125 447.0625 C203.6352376 466.04400186 220.1630857 476.70158418 241 485 C238.38194959 495.74491524 234.61329769 506.12357235 231 516.5625 C230.05093247 519.30971154 229.10293885 522.05728034 228.15722656 524.8056488 C227.57270909 526.50384233 226.98626861 528.20137578 226.39746094 529.89808655 C224.44752094 535.5564205 222.68139412 541.2563255 221 547 C224.65349597 547 226.75809286 545.93616103 230.09375 544.4453125 C231.28871094 543.91292969 232.48367188 543.38054687 233.71484375 542.83203125 C234.64659424 542.41171631 234.64659424 542.41171631 235.59716797 541.98291016 C237.49037027 541.12934166 239.38736129 540.28470658 241.28515625 539.44140625 C249.15473313 536.61721855 249.15473313 536.61721855 254.89225769 531.20297241 C255.13430435 530.47905304 255.37635101 529.75513367 255.62573242 529.00927734 C256.04582832 527.77822769 256.04582832 527.77822769 256.47441101 526.52230835 C256.76516006 525.63580597 257.05590912 524.74930359 257.35546875 523.8359375 C257.66196854 522.92872955 257.96846832 522.02152161 258.28425598 521.08682251 C259.26178163 518.1860595 260.22476997 515.28070301 261.1875 512.375 C261.84735618 510.40853476 262.5081519 508.44238452 263.16992188 506.4765625 C264.79087617 501.65463033 266.39880852 496.82852888 268 492 C268.8751123 491.96036133 269.75022461 491.92072266 270.65185547 491.87988281 C310.98940622 489.96081416 345.31962526 481.37891725 373.53369141 450.67773438 C389.61342567 432.27947698 397.71359505 408.25616241 397.3125 383.96484375 C395.61683443 362.45108685 385.78528439 346.76316745 369.96875 332.38671875 C362.95103799 326.74484765 355.51701223 322.55116998 347.375 318.75 C346.47265625 318.316875 345.5703125 317.88375 344.640625 317.4375 C339.81207307 315.15695944 335.17038328 313.40082327 330 312 C333.73336495 298.78279003 338.03622644 285.7989291 342.5 272.8125 C343.20280543 270.75914663 343.90527468 268.70567816 344.60742188 266.65209961 C346.0344727 262.48027369 347.46356203 258.30915535 348.89453125 254.13867188 C350.91307773 248.25534738 352.92615533 242.37016492 354.9375 236.484375 C357.95510173 227.65514197 360.97616958 218.82710165 364 210 C372.0649356 211.343171 378.38228139 217.6462485 383.4375 223.875 C390.91263612 234.9364731 391 247.08981696 391 260 C396.96313166 260.02464574 402.92623395 260.042834 408.8894043 260.05493164 C410.91968298 260.05997278 412.94995802 260.06680557 414.98022461 260.07543945 C417.89177347 260.08751467 420.8032745 260.09323034 423.71484375 260.09765625 C424.6283812 260.10281754 425.54191864 260.10797882 426.48313904 260.11329651 C428.65575427 260.11349168 430.82827296 260.06211805 433 260 C435.93513181 257.06486819 434.3125 247.86612005 434.3125 243.91235352 C434.08824979 225.92009651 427.78473641 208.76509157 416 195 C415.54238281 194.4121875 415.08476562 193.824375 414.61328125 193.21875 C406.10692464 182.59163051 392.92642209 174.07270833 380 170 C379.34 170 378.68 170 378 170 C378.32162109 169.04037354 378.64324219 168.08074707 378.97460938 167.09204102 C385.44768574 147.76891516 391.86688765 128.43436857 398 109 C394.46567374 109 392.42474507 110.25767208 389.34521484 111.86328125 Z M3 145 C8.2334712 170.58203357 21.54960591 192.45596787 43 207.8125 C44.65630297 208.89108449 46.32347183 209.95312974 48 211 C48.93714844 211.62003906 49.87429687 212.24007812 50.83984375 212.87890625 C71.96476167 226.49155828 95.62105196 234.33289991 119.65893555 241.07055664 C136.2160171 245.7176588 151.86096833 250.75597285 167 259 C164.54421925 244.78232195 156.06896522 234.19336092 146.625 223.8125 C146.10091553 223.23508057 145.57683105 222.65766113 145.03686523 222.06274414 C143.73464826 220.66670811 142.37192167 219.32759805 141 218 C140.34 218 139.68 218 139 218 C139 217.34 139 216.68 139 216 C130.35878701 209.10743045 120.57630869 203.48111569 111 198 C110.34451172 197.61763184 109.68902344 197.23526367 109.01367188 196.84130859 C97.68612561 190.29171916 85.83021541 185.4277399 73.65292358 180.72924805 C51.82311179 172.30540722 29.68606518 163.31619448 10.8203125 149.21484375 C9.08748578 147.81496266 9.08748578 147.81496266 7 148 C7 147.34 7 146.68 7 146 C5.68 145.67 4.36 145.34 3 145 Z M632.25 148.5 C613.45694903 162.17636788 592.25708564 171.9124009 570.49658203 179.92138672 C544.80148282 189.4043742 518.62714768 202.34569453 498.1875 220.9375 C497.66559082 221.41018311 497.14368164 221.88286621 496.60595703 222.36987305 C495.36032188 223.53493315 494.17387694 224.76267025 493 226 C493 226.66 493 227.32 493 228 C492.34 228 491.68 228 491 228 C486.20137671 233.39520889 482.85670958 239.90487592 479.625 246.3125 C479.27937012 246.99376953 478.93374023 247.67503906 478.57763672 248.37695312 C476.85181963 251.88902111 475.52663079 255.11045546 475 259 C478.5307538 257.68685437 481.79396206 256.06730153 485.109375 254.28491211 C495.03438212 249.02589896 505.2109 245.9726638 516 243 C549.17845648 233.69494595 585.70944024 222.85357385 611 198 C611 197.34 611 196.68 611 196 C611.66 196 612.32 196 613 196 C613 195.34 613 194.68 613 194 C613.66 194 614.32 194 615 194 C616.67533174 192.07758696 618.22202747 190.16013537 619.75 188.125 C620.19956055 187.52856689 620.64912109 186.93213379 621.11230469 186.31762695 C630.03008364 174.34218621 637.92620108 160.35017547 638 145 C635.92407521 145 633.80224613 147.33357228 632.25 148.5 Z M51 247 C53.62083956 252.65680027 56.45477781 257.2606677 60.5625 261.9375 C61.09133789 262.54158691 61.62017578 263.14567383 62.16503906 263.76806641 C84.47274664 288.71940381 115.74421509 293.19147301 147.48031616 295.67449951 C157.51323349 296.46659015 167.20983654 297.66256968 176.96484375 300.23046875 C179.96279992 301.12288159 179.96279992 301.12288159 183 301 C177.84829108 284.53425091 168.13149838 273.86932592 152.93359375 265.87890625 C145.56241667 262.23398497 137.80304503 259.55375452 130 257 C129.34918457 256.78327637 128.69836914 256.56655273 128.02783203 256.34326172 C111.33188077 250.91408108 93.37654165 250.93513823 76.00610352 249.75390625 C67.60874196 249.16580506 59.31340172 248.3290132 51 247 Z M581.99633789 247.96484375 C569.78219192 249.9226498 557.60171274 250.67266844 545.25756836 251.17724609 C519.61841651 252.32387744 489.84853218 260.62504903 471 279 C467.11991285 283.28188907 464.30344187 287.6439067 461.625 292.75 C461.25761719 293.42160156 460.89023437 294.09320313 460.51171875 294.78515625 C459.60677944 296.48917405 458.79490496 298.24195622 458 300 C458.33 300.66 458.66 301.32 459 302 C460.48886719 301.60167969 460.48886719 301.60167969 462.0078125 301.1953125 C473.88836585 298.07731253 485.52677841 296.22774956 497.77685547 295.35644531 C525.04549213 293.39835809 553.07840204 289.12608769 574 270 C574.6084375 269.47148437 575.216875 268.94296875 575.84375 268.3984375 C581.83876087 262.86667747 588.40735077 254.7779477 591 247 C587.90969378 247 585.03874541 247.46628853 581.99633789 247.96484375 Z " transform="translate(35,70)" style="fill: #131313;"/><path d="M0 0 C11.57808442 1.18918984 22.38456174 9.68692074 29.91796875 18.15625 C36.6323205 27.30766276 38.0642642 38.49902548 36.68359375 49.52734375 C34.20904882 63.99562897 25.71759328 76.81414995 14.5 86.125 C0.72968111 95.78036032 -16.34124646 99.95293717 -33 99 C-32.37578698 92.09752473 -30.1205903 85.82155462 -27.9140625 79.28125 C-27.50077194 78.04147903 -27.08748138 76.80170807 -26.66166687 75.52436829 C-25.55212597 72.19782862 -24.43472386 68.87398315 -23.31521988 65.55078506 C-22.62520402 63.50060618 -21.93738419 61.44970411 -21.25033569 59.39852905 C-16.03725642 43.83583136 -10.80063531 28.28079691 -5.3125 12.8125 C-4.87437988 11.57628906 -4.43625977 10.34007812 -3.98486328 9.06640625 C-1.13699138 1.13699138 -1.13699138 1.13699138 0 0 Z M7 19 C-1.96671934 45.10443728 -1.96671934 45.10443728 -10.8125 71.25 C-11.14314453 72.22904297 -11.47378906 73.20808594 -11.81445312 74.21679688 C-12.10900391 75.09916016 -12.40355469 75.98152344 -12.70703125 76.890625 C-13.08565308 78.02032715 -13.08565308 78.02032715 -13.47192383 79.17285156 C-14.09255095 81.00323891 -14.09255095 81.00323891 -14 83 C-3.08172112 81.66002941 6.48028328 75.70435387 13.87109375 67.765625 C21.73876992 57.54486404 23.89629349 47.60083207 23 35 C21.36591664 27.97785798 15.76723888 22.99352084 10 19 C9.01 19 8.02 19 7 19 Z " transform="translate(350,423)" style="fill: #131313;"/><path d="M0 0 C1.18239258 0.00676758 1.18239258 0.00676758 2.38867188 0.01367188 C4.32164761 0.02538688 6.25458393 0.04332002 8.1875 0.0625 C6.95575635 6.03258859 5.43191767 11.81014532 3.53515625 17.6015625 C3.27919678 18.39290588 3.0232373 19.18424927 2.75952148 19.99957275 C1.92791469 22.56383954 1.08943885 25.12578735 0.25 27.6875 C-0.03706818 28.56811096 -0.32413635 29.44872192 -0.61990356 30.35601807 C-4.92461062 43.55441375 -9.40522632 56.68021793 -14.12084961 69.73730469 C-16.06193814 75.11618121 -17.98053728 80.49044338 -19.72265625 85.9375 C-19.99795166 86.79746582 -20.27324707 87.65743164 -20.55688477 88.54345703 C-21.04105051 90.07745681 -21.51515075 91.61469188 -21.97631836 93.15576172 C-22.59375 95.1171875 -22.59375 95.1171875 -23.8125 98.0625 C-27.36276555 99.24592185 -28.41295346 98.57060441 -31.64990234 96.96557617 C-32.26043457 96.64693604 -32.8709668 96.3282959 -33.5 96 C-34.12342285 95.68071533 -34.7468457 95.36143066 -35.38916016 95.0324707 C-40.14571702 92.53932346 -44.9923582 89.89450559 -48.8125 86.0625 C-48.8125 85.4025 -48.8125 84.7425 -48.8125 84.0625 C-49.4725 84.0625 -50.1325 84.0625 -50.8125 84.0625 C-59.7435423 71.85674219 -62.56591325 61.07117057 -60.34765625 45.87890625 C-56.98286645 30.56811716 -47.54509642 18.08840402 -34.5 9.625 C-23.60485685 3.37688924 -12.53682834 -0.13661255 0 0 Z M-34.3671875 26.6015625 C-42.93848634 35.22763002 -47.7744228 44.83971957 -47.8125 57.0625 C-47.20876504 64.85855574 -43.67747679 71.311199 -38.0859375 76.73828125 C-36.70490322 77.90005179 -35.26452028 78.99077075 -33.8125 80.0625 C-31.14160681 78.72705341 -31.13282212 77.65411988 -30.19604492 74.85668945 C-29.89200241 73.96097733 -29.5879599 73.0652652 -29.27470398 72.14241028 C-28.95073135 71.1634227 -28.62675873 70.18443512 -28.29296875 69.17578125 C-27.95252029 68.16718552 -27.61207184 67.15858978 -27.26130676 66.11943054 C-26.16720866 62.87359107 -25.08331147 59.62445368 -24 56.375 C-22.9277952 53.1801146 -21.85349783 49.98594022 -20.77859497 46.79196167 C-20.08337312 44.72500001 -19.38957152 42.65756007 -18.69723511 40.58963013 C-16.44361717 33.87287494 -14.09617419 27.20045276 -11.6184082 20.56323242 C-10.65913301 18.02449982 -10.65913301 18.02449982 -10.8125 15.0625 C-19.50224402 15.0625 -28.12352209 21.12242755 -34.3671875 26.6015625 Z " transform="translate(364.8125,271.9375)" style="fill: #121212;"/><path d="M0 0 C0.66 0.33 1.32 0.66 2 1 C-2.95 5.95 -7.9 10.9 -13 16 C-13.66 15.67 -14.32 15.34 -15 15 C-13.44221619 13.2456027 -11.87905295 11.49653989 -10.3125 9.75 C-9.44238281 8.77546875 -8.57226562 7.8009375 -7.67578125 6.796875 C-5.25206689 4.26347429 -2.7912151 2.11227089 0 0 Z " transform="translate(531,275)" style="fill: #606060;"/><path d="M0 0 C-1.58667578 3.90285767 -4.13350481 6.33520982 -7.125 9.25 C-8.03507812 10.14203125 -8.94515625 11.0340625 -9.8828125 11.953125 C-10.58148438 12.62859375 -11.28015625 13.3040625 -12 14 C-12 9.88181592 -10.33436007 8.84145243 -7.5625 5.875 C-6.73878906 4.98554688 -5.91507812 4.09609375 -5.06640625 3.1796875 C-2.05197133 0 -2.05197133 0 0 0 Z " transform="translate(326,286)" style="fill: #5C5C5B;"/></svg>